<svg xmlns="http://www.w3.org/2000/svg" xmlns:xlink="http://www.w3.org/1999/xlink" viewBox="0 0 521 308.73" xmlns:v="https://vecta.io/nano"><g fill-rule="evenodd"><path d="M185.11 58.28l-.39-.08v.42c.14-.11.27-.23.39-.34h0zm-.39-20.76v-9.23l1.95.79c3.29 1.49 2.56 1.49 4.81 3.1 0-6.14.79-7.67 4-10.88 2.46-2.46 7.16-3.37 11.24-2.55 4.42.89 6.56 2.71 9.51 5.35s4.54 3.74 9.04 5.35c-.57.77-2.16 1.81-2.97 2.52-9.46 8.31-.84 19.81-4.39 29.94-1.84 5.25-5.49 9.48-9.37 11.85-5.44 3.31-9.78 3.76-16.85 3.35l-5.26 8.88c-.28.48-.53.92-.88 1.47l-.84 1.16V74.29c1.14-1.8 2.31-3.58 3.55-5.22 11.34 2.88 18.49-1.45 21.58-10.48 1.76-5.13-.21-10.31-.66-15.29-.23-2.49.22-5.11.92-7.34.72-2.27 1.33-3.21 2.72-4.7l.68-.78c-3.09-1.31-3.56-3.99-6.92-4.81-3.74-.92-6.66 1.2-7.79 3.7-2.31 5.11 2 15.94-3.85 19.19l-.61-1.25c-1.43-3.53-2.9-5.38-6.07-7.71-1.08-.8-2.28-1.48-3.57-2.07zm0 20.67c-5.09-1.05-7.65-1.05-12.26-3.12-11.48-5.14-17.13-17.16-16.5-30.33.59.71 1.1 1.64 1.68 2.38 1.54 1.97 4.56 3.74 6.93 4.86 3.78 1.8 7.87 2.61 12.23 3.28 2.83.43 5.53 1.17 7.92 2.25v-9.23c-1.41-.51-2.85-.89-4.44-1.27-4.9-1.16-8.61-1.25-12.9-3.58-10.97-5.96-10.75-16.75-14.84-18.56-1.82 2.76-3.02 12.22-3.38 16.23-.95 10.83.41 23.58 7.23 31.84 5.22 6.32 8.71 7.03 10.93 8.91-2.07 1.89-5.48 3.88-7.84 5.59-1.47 1.06-2.46 1.65-3.98 2.75-.69.5-1.13.85-1.97 1.39-.5.32-.55.29-1.04.64-.21.15-.4.3-.57.47-.52.52-.14.01-.49.6l33.1 15.57.19-.27V74.26l-3.45 5.37-15.5-7.45 14.58-10.49c1.25-.89 3.09-2.01 4.38-3.1v-.42z" fill="#ffca05"/><path d="M331.58,56.9c-.42,7.84,1.83,10.41,4.3,16.19l-7.31-.03v9.2l22.82-.04c-3.39-8.02-14.48-16.56-9.8-28.83,1.62-4.25,3.33-5.22,5.82-7.54,2.62-2.45,4.87-4.08,7.25-6.47,7.93-7.94,11.63-15.25,12.37-27.91h-38.47v6.85h26.74c-.42,6.17-4.9,10.03-7.58,13.06l-5.4,5.15c-5.4,5.35-10.27,11.76-10.74,20.36Zm-3.01,16.16l-7.32-.03c2.48-5.89,4.77-8.45,4.3-16.49-.51-8.83-5.62-15.21-11.19-20.26-4.89-4.44-12.24-10.9-12.53-17.97h26.74v-6.85h-38.46c.46,8.75,2.35,14.69,6.48,20.76,1.67,2.46,7.78,9,9.81,10.6,3.92,3.11,7.66,5.74,9.37,11.04,3.85,11.87-6.29,19.69-10.09,28.42l22.89-.04v-9.2Z" fill="#0083c7"/><path d="M490.89 69.74h-20.82v9.11h27.49c.73-1.2 13.21-47.15 13.68-50.53-8.87 2.53-17.91 8.81-24.49 15.03-.58-.73-4.84-11.44-7.12-15.29-4.87-8.21-7.01-9.5-9.27-13.14a4.13 4.13 0 0 0-.29.21V28.5c.08-.08.16-.14.23-.2.65 1.78 2.64 4.78 3.7 7.17 1.15 2.61 2.25 5.2 3.28 7.98 1.01 2.73 4.6 15.63 5.61 16.8l4.07-4.24c1.54-1.53 2.2-2.83 4.04-4.42 1.63-1.4 2.62-2.86 4.18-4.26.98-.88 3.66-3.32 4.81-3.81l-9.08 26.22zm-20.82 0h-20.78l-9.13-26.3c1.96.9 3.03 2.34 4.52 3.73 1.63 1.53 2.83 2.39 4.31 4.14 2.53 3 5.88 5.66 8.05 8.82.54-.5.18-.03.57-.71l5.23-15.93c.76-2.07 4.96-12.83 7.22-15V15.13c-1.59 1.2-3.82 4.27-5.08 5.88-5.35 6.82-8.18 15.45-11.47 22.3-.53-.6-1.61-1.36-2.61-2.33-5.27-5.09-14.89-10.63-22.07-12.68l13.77 50.55h27.47v-9.11z" fill="#7a2a88"/><path d="M38.66 34.24H7.94l.02 11.46h30.71l-.02 47.84c2.68.42 8.45.17 11.45.16V45.68h33.19V34.24H50.11V0H38.68v34.24z" fill="#ec1c24"/><path d="M0,126.8H521v-6.85H0v6.85Z" fill="#7b7e80"/></g><g fill="#fff"><path d="M17.87 225.6v3.65H6.29v8.04h9.03v3.65H6.29v11.93H1.82V225.6h16.05zm30.8 21.69H37.25l-1.96 5.57h-4.67l9.77-27.31h5.18l9.77 27.31h-4.71l-1.96-5.57zm-1.25-3.65l-4.43-12.67-4.47 12.67h8.91zM98.5 225.6v27.27h-4.47v-18.68l-8.32 18.68h-3.1l-8.36-18.68v18.68h-4.47V225.6h4.83l9.57 21.39 9.54-21.39h4.79zm22.37-5.85l-8.67 4.28v-3.3l8.67-4.79v3.81zm-1.81 5.85v27.27h-4.47V225.6h4.47zm20.56 23.66h9.22v3.61h-13.69V225.6h4.47v23.66zm27.63-23.66v27.27h-4.47V225.6h4.47zm32.53 21.69h-11.42l-1.96 5.57h-4.67l9.77-27.31h5.18l9.77 27.31h-4.71l-1.96-5.57zm-1.25-3.65l-4.43-12.67-4.47 12.67h8.91zm59.3-16.38c2.18 1.11 3.87 2.71 5.06 4.79s1.79 4.51 1.79 7.28-.59 5.18-1.79 7.22c-1.19 2.04-2.88 3.6-5.06 4.69s-4.73 1.63-7.63 1.63h-8.91V225.6h8.91c2.9 0 5.45.56 7.63 1.67zm-.29 19.36c1.7-1.73 2.55-4.16 2.55-7.3s-.85-5.64-2.55-7.42-4.15-2.67-7.34-2.67h-4.43v19.97h4.43c3.19 0 5.64-.86 7.34-2.59zm26.25-17.41v8h9.42v3.65h-9.42v8.36h10.59v3.65h-15.07v-27.31h15.07v3.65h-10.59zm47.06 2.78a13.24 13.24 0 0 1 5.06-4.96c2.13-1.19 4.47-1.79 7-1.79 2.9 0 5.49.71 7.75 2.14s3.9 3.45 4.92 6.06h-5.38c-.71-1.44-1.69-2.51-2.94-3.22-1.26-.71-2.71-1.06-4.36-1.06-1.8 0-3.41.41-4.83 1.22-1.41.81-2.52 1.98-3.32 3.49-.8 1.52-1.2 3.28-1.2 5.3s.4 3.78 1.2 5.3 1.9 2.69 3.32 3.51c1.41.82 3.02 1.24 4.83 1.24 1.65 0 3.1-.35 4.36-1.06s2.24-1.78 2.94-3.22h5.38c-1.02 2.62-2.66 4.63-4.92 6.04s-4.85 2.12-7.75 2.12c-2.56 0-4.91-.59-7.02-1.79a13.26 13.26 0 0 1-5.04-4.96c-1.24-2.12-1.86-4.51-1.86-7.18s.62-5.06 1.86-7.18zm54.33 20.88l-6.28-10.91h-3.41v10.91h-4.47V225.6h9.42c2.09 0 3.87.37 5.32 1.1s2.54 1.71 3.26 2.94 1.08 2.6 1.08 4.12c0 1.78-.52 3.39-1.55 4.85-1.03 1.45-2.62 2.44-4.77 2.96l6.75 11.3h-5.34zm-9.69-14.48h4.94c1.67 0 2.94-.42 3.79-1.26s1.28-1.96 1.28-3.37-.42-2.52-1.25-3.32c-.84-.8-2.11-1.2-3.81-1.2h-4.94v9.14zm35-12.79v27.27h-4.47V225.6h4.47zm20.13 26.58c-1.46-.64-2.62-1.55-3.45-2.73-.84-1.18-1.26-2.55-1.26-4.12h4.79c.1 1.18.57 2.15 1.39 2.9s1.98 1.14 3.47 1.14 2.75-.37 3.61-1.12 1.29-1.71 1.29-2.88c0-.92-.27-1.66-.8-2.24-.54-.58-1.2-1.02-2-1.33s-1.9-.65-3.32-1.02c-1.78-.47-3.22-.95-4.34-1.43-1.11-.48-2.06-1.24-2.84-2.26s-1.18-2.38-1.18-4.08c0-1.57.39-2.94 1.18-4.12s1.88-2.08 3.3-2.71c1.41-.63 3.05-.94 4.91-.94 2.64 0 4.81.66 6.49 1.98s2.62 3.13 2.81 5.43h-4.94c-.08-.99-.55-1.84-1.41-2.55s-2-1.06-3.41-1.06c-1.28 0-2.33.33-3.14.98s-1.22 1.6-1.22 2.83c0 .84.25 1.52.76 2.06s1.16.96 1.94 1.28c.79.31 1.86.65 3.22 1.02 1.81.5 3.28.99 4.42 1.49a7.31 7.31 0 0 1 2.9 2.29c.8 1.03 1.2 2.41 1.2 4.14 0 1.39-.37 2.7-1.12 3.92-.75 1.23-1.83 2.22-3.26 2.96-1.43.75-3.11 1.12-5.04 1.12-1.83 0-3.48-.32-4.94-.96zm47.48-26.58v3.65h-7.26v23.62h-4.47v-23.62h-7.3v-3.65h19.03zm20.15 25.76c-2.13-1.19-3.82-2.85-5.06-4.98s-1.86-4.53-1.86-7.2.62-5.06 1.86-7.18a13.24 13.24 0 0 1 5.06-4.96c2.13-1.19 4.47-1.79 7-1.79s4.91.59 7.04 1.79a13.19 13.19 0 0 1 5.04 4.96c1.23 2.12 1.84 4.51 1.84 7.18s-.62 5.07-1.84 7.2c-1.23 2.13-2.91 3.79-5.04 4.98s-4.48 1.79-7.04 1.79-4.87-.59-7-1.79zm11.83-3.33c1.41-.82 2.52-2 3.32-3.53s1.2-3.3 1.2-5.32-.4-3.78-1.2-5.3-1.9-2.68-3.32-3.49c-1.41-.81-3.02-1.22-4.83-1.22s-3.41.41-4.83 1.22c-1.41.81-2.52 1.98-3.32 3.49-.8 1.52-1.2 3.28-1.2 5.3s.4 3.79 1.2 5.32 1.9 2.71 3.32 3.53c1.41.82 3.02 1.24 4.83 1.24s3.41-.41 4.83-1.24zM34.07 203.1l-5.58-7.51c-1.65.33-3.27.5-4.84.5-4.09 0-7.85-.95-11.26-2.85s-6.12-4.56-8.13-7.97-3.01-7.25-3.01-11.51 1-8.08 3.01-11.48a21.3 21.3 0 0 1 8.13-7.94c3.41-1.9 7.16-2.85 11.26-2.85s7.85.95 11.26 2.85a20.91 20.91 0 0 1 8.06 7.94c1.96 3.39 2.95 7.22 2.95 11.48 0 3.72-.75 7.12-2.26 10.2s-3.61 5.63-6.3 7.66l9.55 11.48H34.07zm-18.83-20.13c2.09 2.29 4.89 3.44 8.41 3.44s6.25-1.16 8.34-3.47c2.09-2.32 3.13-5.38 3.13-9.18s-1.04-6.92-3.13-9.21-4.87-3.44-8.34-3.44-6.32 1.14-8.41 3.41-3.13 5.36-3.13 9.24 1.04 6.92 3.13 9.21z"/><use xlink:href="#B"/><use xlink:href="#C"/><path d="M169.72 154.84c3.43 1.82 6.09 4.37 7.97 7.66s2.82 7.08 2.82 11.38-.94 8.04-2.82 11.35-4.55 5.87-8 7.69-7.45 2.73-12 2.73h-16.31v-43.54h16.31c4.59 0 8.6.91 12.03 2.73zm-3.35 28.35c2.23-2.19 3.35-5.29 3.35-9.3s-1.12-7.13-3.35-9.37c-2.23-2.23-5.36-3.35-9.37-3.35h-5.02v25.31H157c4.01 0 7.13-1.09 9.37-3.29z"/><use xlink:href="#D"/><use xlink:href="#C" x="131.25"/><path d="M311.58 195.65h-10.61l-17.74-26.86v26.86h-10.61v-43.54h10.61l17.74 26.98v-26.98h10.61v43.54zm36.6-29.77a7.96 7.96 0 0 0-3.38-3.32c-1.47-.76-3.19-1.15-5.18-1.15-3.43 0-6.18 1.13-8.25 3.38s-3.1 5.26-3.1 9.03c0 4.01 1.09 7.14 3.26 9.4s5.16 3.38 8.96 3.38c2.61 0 4.81-.66 6.61-1.98s3.11-3.23 3.94-5.71h-13.46v-7.82h23.07v9.86c-.79 2.65-2.12 5.11-4 7.38s-4.27 4.12-7.17 5.52c-2.89 1.41-6.16 2.11-9.8 2.11-4.3 0-8.14-.94-11.51-2.82s-6-4.5-7.88-7.85-2.82-7.17-2.82-11.48.94-8.14 2.82-11.51 4.5-6 7.85-7.88 7.17-2.82 11.48-2.82c5.21 0 9.6 1.26 13.18 3.78s5.94 6.02 7.1 10.48h-11.72z"/><use xlink:href="#B" x="314.61"/><path d="M420.88 187.46h13.89v8.19h-24.5v-43.54h10.61v35.36zm46.08.5h-16.25l-2.61 7.69H437l15.76-43.54h12.28l15.76 43.54h-11.23l-2.61-7.69zm-2.73-8.19l-5.4-15.94-5.33 15.94h10.73z"/><use xlink:href="#D" x="299.11"/><path d="M81.01 281.7V294c0 1.94.46 3.37 1.38 4.3s2.19 1.4 3.79 1.4 2.86-.46 3.76-1.38 1.36-2.36 1.36-4.32v-12.3h1.96v12.27c0 2.48-.66 4.34-1.97 5.59s-3.03 1.87-5.13 1.87-3.81-.62-5.13-1.87c-1.31-1.25-1.97-3.11-1.97-5.59V281.7h1.96zm40.82 5.69c1.13 1.13 1.69 2.76 1.69 4.91v8.95h-1.93v-8.72c0-1.66-.4-2.93-1.2-3.8s-1.89-1.31-3.27-1.31-2.58.47-3.44 1.42-1.29 2.33-1.29 4.14v8.27h-1.93v-8.72c0-1.66-.4-2.93-1.2-3.8-.8-.88-1.9-1.31-3.3-1.31s-2.58.47-3.44 1.42-1.29 2.33-1.29 4.14v8.27h-1.96v-15.26h1.96v2.63c.48-.95 1.17-1.67 2.07-2.17.89-.49 1.89-.74 2.99-.74 1.32 0 2.48.32 3.48.95s1.72 1.57 2.17 2.79c.41-1.21 1.11-2.14 2.11-2.78s2.13-.96 3.4-.96c1.79 0 3.25.56 4.38 1.69z"/><use xlink:href="#E"/><path d="M161.38 281.7v19.54h-1.96V281.7h1.96zm16.26 5.06c1.06.67 1.83 1.52 2.29 2.54v-3.33h1.96v15.65c0 1.4-.3 2.64-.91 3.72s-1.45 1.92-2.53 2.5c-1.08.59-2.31.88-3.69.88-1.96 0-3.58-.47-4.88-1.4-1.29-.93-2.1-2.2-2.42-3.8h1.93a4.7 4.7 0 0 0 1.91 2.54c.94.63 2.09.95 3.45.95.99 0 1.87-.21 2.66-.63a4.46 4.46 0 0 0 1.84-1.86c.45-.82.67-1.79.67-2.91v-3.77c-.48 1.04-1.25 1.91-2.31 2.59-1.05.68-2.3 1.02-3.73 1.02s-2.65-.33-3.76-.98-1.97-1.57-2.6-2.77c-.62-1.19-.94-2.57-.94-4.14s.31-2.94.94-4.12 1.49-2.1 2.6-2.74 2.36-.96 3.76-.96 2.68.33 3.75 1.01zm1.54 3.61c-.5-.93-1.19-1.65-2.05-2.15a5.64 5.64 0 0 0-2.87-.75c-1.05 0-2.05.24-2.91.73s-1.53 1.19-2.03 2.11c-.49.92-.74 2.02-.74 3.29s.25 2.34.74 3.28 1.17 1.66 2.03 2.15 1.83.74 2.91.74a5.56 5.56 0 0 0 2.87-.75c.87-.5 1.55-1.22 2.05-2.15s.76-2.01.76-3.24-.25-2.31-.76-3.24zm12.79-3.89c.88-.52 1.97-.78 3.26-.78v2.04h-.53c-1.42 0-2.55.38-3.41 1.15-.86.76-1.29 2.04-1.29 3.83v8.53h-1.96v-15.26H190v2.71c.43-.95 1.08-1.69 1.97-2.21z"/><use xlink:href="#F"/><path d="M220.97 304.84c0 1.23-.31 2.14-.92 2.73-.62.59-1.54.88-2.77.88h-1.37v-1.68h1.06c.73 0 1.25-.15 1.56-.46.32-.31.48-.82.48-1.55v-18.79h1.96v18.87zm-1.96-22.17c-.28-.28-.42-.62-.42-1.03s.14-.75.42-1.02.61-.41 1.01-.41.72.14.99.41.4.61.4 1.02-.13.75-.4 1.03a1.32 1.32 0 0 1-.99.42 1.38 1.38 0 0 1-1.01-.42z"/><use xlink:href="#E" x="97.59"/><path d="M257.06 289.46c.63-1.18 1.5-2.1 2.61-2.74s2.36-.96 3.76-.96 2.68.34 3.75 1.02c1.06.68 1.82 1.53 2.26 2.56v-3.35h1.96v22.47h-1.96v-10.57c-.45 1.03-1.21 1.88-2.28 2.56s-2.33 1.02-3.79 1.02-2.62-.33-3.73-.98-1.98-1.57-2.6-2.77c-.62-1.19-.94-2.57-.94-4.14s.32-2.94.95-4.12zm11.63.91c-.5-.93-1.19-1.65-2.05-2.15a5.64 5.64 0 0 0-2.87-.75c-1.05 0-2.05.24-2.91.73s-1.53 1.19-2.03 2.11c-.49.92-.74 2.02-.74 3.29s.25 2.34.74 3.28 1.17 1.66 2.03 2.15 1.83.74 2.91.74a5.56 5.56 0 0 0 2.87-.75c.87-.5 1.55-1.22 2.05-2.15s.75-2.01.75-3.24-.25-2.31-.75-3.24zm22.08-4.39v15.26h-1.96v-2.68a4.7 4.7 0 0 1-2.07 2.18c-.93.5-1.98.75-3.13.75-1.83 0-3.32-.56-4.47-1.69-1.16-1.13-1.73-2.76-1.73-4.91v-8.92h1.93v8.69c0 1.66.41 2.93 1.24 3.8.83.88 1.96 1.31 3.4 1.31s2.64-.46 3.52-1.4c.88-.93 1.31-2.3 1.31-4.11v-8.3h1.96z"/><use xlink:href="#F" x="97.09"/><path d="M340.81,281.7l-7.41,19.54h-2.24l-7.41-19.54h2.12l6.4,17.42,6.46-17.42h2.07Z"/><use xlink:href="#E" x="215.89"/><path d="M367.93 280.55v20.69h-1.96v-20.69h1.96zm8.93 19.95c-1.15-.64-2.05-1.56-2.71-2.74s-.99-2.57-.99-4.15.34-2.97 1.01-4.15 1.58-2.1 2.74-2.74c1.15-.64 2.45-.96 3.88-.96s2.73.32 3.9.96c1.16.64 2.08 1.56 2.74 2.74s.99 2.57.99 4.15-.33 2.95-1.01 4.14c-.67 1.19-1.59 2.11-2.77 2.75-1.17.64-2.48.96-3.91.96s-2.72-.32-3.87-.96zm6.67-1.42c.86-.46 1.55-1.15 2.08-2.07s.8-2.05.8-3.4-.26-2.47-.78-3.4c-.52-.92-1.21-1.61-2.07-2.07s-1.79-.68-2.79-.68-1.94.23-2.79.68c-.86.46-1.54 1.15-2.05 2.07s-.77 2.05-.77 3.4.26 2.47.77 3.4c.51.92 1.19 1.61 2.04 2.07s1.78.68 2.78.68a5.97 5.97 0 0 0 2.8-.68zm14.07-12.6c.88-.52 1.97-.78 3.26-.78v2.04h-.53c-1.42 0-2.55.38-3.41 1.15-.86.76-1.29 2.04-1.29 3.83v8.53h-1.96v-15.26h1.96v2.71c.43-.95 1.09-1.69 1.97-2.21zm7.84-3.8c-.28-.28-.42-.62-.42-1.03s.14-.75.42-1.02.62-.41 1.01-.41.73.14 1.01.41.42.61.42 1.02-.14.75-.42 1.03-.61.42-1.01.42-.73-.14-1.01-.42zm1.98 3.3v15.26h-1.96v-15.26h1.96zm7.16 13.64h7.99v1.62h-10.23v-1.62l7.86-12.02h-7.72v-1.62h9.95v1.62l-7.86 12.02zm13.01-10.16c.62-1.18 1.49-2.1 2.6-2.74s2.36-.96 3.76-.96 2.71.33 3.76 1.01 1.81 1.53 2.28 2.57v-3.35h1.96v15.26h-1.96v-3.38c-.48 1.04-1.25 1.91-2.31 2.59-1.05.68-2.31 1.02-3.76 1.02s-2.62-.33-3.73-.98-1.97-1.57-2.6-2.77c-.62-1.19-.94-2.57-.94-4.14s.31-2.94.94-4.12zm11.64.91c-.5-.93-1.19-1.65-2.05-2.15a5.64 5.64 0 0 0-2.87-.75c-1.05 0-2.05.24-2.91.73s-1.53 1.19-2.03 2.11c-.49.92-.74 2.02-.74 3.29s.25 2.34.74 3.28 1.17 1.66 2.03 2.15 1.83.74 2.91.74a5.56 5.56 0 0 0 2.87-.75c.87-.5 1.55-1.22 2.05-2.15s.76-2.01.76-3.24-.25-2.31-.76-3.24z"/></g><defs ><path id="B" d="M62.35 152.11v26.05c0 2.61.64 4.61 1.92 6.02s3.16 2.11 5.64 2.11 4.38-.7 5.71-2.11c1.32-1.41 1.98-3.41 1.98-6.02v-26.05h10.61v25.99c0 3.89-.83 7.18-2.48 9.86-1.65 2.69-3.88 4.71-6.67 6.08-2.79 1.36-5.9 2.05-9.33 2.05s-6.5-.67-9.21-2.02c-2.71-1.34-4.85-3.37-6.42-6.08s-2.36-6.01-2.36-9.89v-25.99h10.61z"/><path id="C" d="M122.77,187.96h-16.25l-2.61,7.69h-11.1l15.76-43.54h12.28l15.76,43.54h-11.23l-2.61-7.69Zm-2.73-8.19l-5.4-15.94-5.33,15.94h10.73Z"/><path id="D" d="M208.67 195.65l-9.06-16.44h-2.54v16.44h-10.61v-43.54h17.8c3.43 0 6.36.6 8.78 1.8s4.23 2.84 5.43 4.93 1.8 4.42 1.8 6.98c0 2.89-.82 5.48-2.45 7.75s-4.04 3.89-7.23 4.84l10.05 17.24h-11.97zm-11.6-23.94h6.58c1.94 0 3.4-.47 4.37-1.43.97-.95 1.46-2.29 1.46-4.03s-.49-2.96-1.46-3.91-2.43-1.43-4.37-1.43h-6.58v10.79z"/><path id="E" d="M129.58 289.46c.62-1.18 1.49-2.1 2.6-2.74s2.36-.96 3.76-.96 2.71.33 3.76 1.01 1.81 1.53 2.28 2.57v-3.35h1.96v15.26h-1.96v-3.38c-.48 1.04-1.25 1.91-2.3 2.59s-2.31 1.02-3.76 1.02-2.62-.33-3.73-.98-1.98-1.57-2.6-2.77c-.62-1.19-.94-2.57-.94-4.14s.31-2.94.94-4.12zm11.64.91c-.5-.93-1.19-1.65-2.05-2.15a5.64 5.64 0 0 0-2.87-.75c-1.05 0-2.05.24-2.91.73s-1.53 1.19-2.03 2.11c-.49.92-.74 2.02-.74 3.29s.25 2.34.74 3.28 1.17 1.66 2.03 2.15 1.83.74 2.91.74a5.56 5.56 0 0 0 2.87-.75c.87-.5 1.55-1.22 2.05-2.15s.75-2.01.75-3.24-.25-2.31-.75-3.24z"/><path id="F" d="M213.59 294.36h-12.66c.06 1.16.34 2.14.84 2.96s1.16 1.44 1.98 1.86 1.71.63 2.68.63c1.27 0 2.33-.31 3.2-.92s1.44-1.44 1.72-2.49h2.07c-.37 1.49-1.17 2.71-2.39 3.65s-2.75 1.41-4.6 1.41c-1.44 0-2.72-.32-3.86-.96s-2.03-1.56-2.67-2.74-.96-2.57-.96-4.15.32-2.97.95-4.17a6.57 6.57 0 0 1 2.66-2.74c1.13-.63 2.43-.95 3.88-.95s2.72.32 3.82.95c1.09.63 1.93 1.49 2.52 2.56s.88 2.26.88 3.56l-.06 1.54zm-2.61-4.5c-.48-.8-1.12-1.41-1.94-1.82a5.9 5.9 0 0 0-2.68-.62c-1.45 0-2.69.47-3.72 1.4s-1.59 2.25-1.71 3.94h10.73c.02-1.14-.21-2.11-.68-2.91z"/></defs></svg>